<?xml version="1.0" standalone="no"?>
<!DOCTYPE svg PUBLIC "-//W3C//DTD SVG 20010904//EN"
 "http://www.w3.org/TR/2001/REC-SVG-20010904/DTD/svg10.dtd">
<svg version="1.0" xmlns="http://www.w3.org/2000/svg"
 width="512.000000pt" height="512.000000pt" viewBox="0 0 512.000000 512.000000"
 preserveAspectRatio="xMidYMid meet">

<g transform="translate(0.000000,512.000000) scale(0.100000,-0.100000)"
fill="#000000" stroke="none">
<path d="M0 2560 l0 -2560 2560 0 2560 0 0 2560 0 2560 -2560 0 -2560 0 0
-2560z m2797 2405 c565 -61 1049 -291 1452 -688 268 -264 466 -578 588 -932
206 -599 166 -1265 -112 -1835 -267 -549 -726 -974 -1295 -1198 -63 -24 -137
-51 -165 -59 -307 -86 -389 -97 -715 -97 -286 0 -333 4 -550 54 -77 18 -224
63 -340 105 -96 35 -320 154 -436 231 -201 134 -363 275 -493 428 -231 273
-381 541 -484 861 -61 190 -89 341 -108 585 -17 228 9 502 72 745 163 629 564
1154 1144 1497 411 243 950 356 1442 303z"/>
<path d="M2690 4478 c-14 -5 -35 -19 -47 -30 -23 -21 -23 -24 -23 -313 0 -288
0 -293 22 -321 54 -70 122 -96 190 -73 53 17 97 54 114 96 16 38 20 545 5 586
-16 42 -55 59 -150 62 -47 1 -97 -2 -111 -7z"/>
<path d="M2112 4356 l-37 -34 0 -234 c0 -224 1 -234 22 -269 24 -38 108 -89
147 -89 64 0 137 48 162 107 21 50 20 470 -2 501 -27 40 -66 52 -164 52 -89 0
-91 -1 -128 -34z"/>
<path d="M3209 4373 c-55 -34 -59 -52 -59 -286 0 -204 1 -217 22 -257 27 -49
57 -73 116 -90 74 -23 168 23 198 97 18 42 20 459 3 497 -19 40 -66 56 -166
56 -64 0 -95 -5 -114 -17z"/>
<path d="M1564 4254 l-34 -35 0 -168 c0 -131 4 -177 16 -207 33 -82 128 -129
207 -103 59 19 105 63 118 112 14 50 18 272 7 342 -6 37 -15 56 -35 72 -25 21
-39 23 -137 23 l-109 0 -33 -36z"/>
<path d="M1275 4129 c-197 -46 -382 -200 -468 -389 -17 -38 -42 -124 -57 -193
-4 -23 -18 -85 -30 -137 -12 -52 -27 -122 -35 -155 -7 -33 -20 -89 -28 -125
-8 -36 -32 -139 -52 -230 -21 -91 -44 -192 -52 -225 -22 -91 -43 -184 -54
-240 -6 -27 -16 -72 -24 -100 -62 -235 -60 -333 12 -481 114 -235 411 -335
656 -220 99 46 159 103 238 226 113 175 111 173 135 113 61 -152 118 -239 237
-361 165 -171 397 -287 621 -312 90 -10 123 -23 98 -39 -20 -12 -269 -13 -337
-1 -33 6 -74 13 -91 16 -29 6 -31 4 -51 -47 l-20 -54 -81 -5 c-45 -3 -86 -10
-91 -15 -7 -7 -12 -96 -13 -225 l-3 -214 -32 -7 c-44 -9 -61 -25 -69 -64 -8
-46 3 -73 39 -96 31 -18 59 -19 805 -19 l774 0 29 29 c54 54 33 131 -41 151
l-40 11 0 214 c0 160 -3 216 -12 222 -7 4 -48 10 -92 13 l-78 5 -19 48 c-10
26 -22 78 -25 115 l-6 67 63 35 c181 101 365 313 443 513 8 20 21 37 28 36 7
0 38 -39 68 -86 71 -111 118 -163 194 -217 112 -80 241 -113 371 -96 74 11 82
13 160 51 68 33 175 142 209 214 62 132 70 231 31 395 -14 58 -32 137 -41 175
-9 39 -23 97 -31 130 -7 33 -20 87 -27 120 -8 33 -24 103 -36 155 -40 169 -50
214 -64 280 -14 65 -45 200 -73 315 -8 33 -20 87 -28 120 -29 129 -37 153 -78
234 -89 180 -281 323 -475 356 l-42 7 0 -79 0 -79 48 -13 c189 -55 335 -207
378 -396 7 -33 20 -89 28 -125 9 -36 23 -96 32 -135 9 -38 24 -106 34 -150 21
-92 45 -194 66 -280 8 -33 21 -89 29 -125 7 -36 21 -94 30 -130 9 -36 22 -92
29 -125 8 -33 21 -89 29 -125 68 -291 69 -298 47 -378 -18 -68 -47 -117 -100
-166 -74 -70 -128 -91 -230 -91 -76 0 -91 3 -139 30 -97 54 -139 106 -370 460
-15 22 -35 73 -45 114 -23 90 -53 153 -140 294 -36 60 -66 110 -66 112 0 12
-165 274 -181 288 -19 16 -54 17 -418 17 -415 -1 -415 -1 -438 -45 -17 -32 -7
-137 18 -189 25 -55 97 -121 148 -138 20 -6 123 -14 229 -17 l194 -6 39 -115
c44 -133 49 -170 19 -170 -31 0 -127 -46 -194 -94 -129 -92 -214 -237 -232
-398 -12 -110 -45 -52 -45 82 -1 168 63 321 184 440 l46 45 -277 -3 c-882 -8
-802 -5 -853 -30 -68 -34 -98 -69 -180 -204 -91 -151 -88 -146 -123 -210 -73
-134 -123 -189 -213 -234 -50 -25 -67 -29 -142 -28 -104 0 -158 21 -230 89
-95 89 -129 208 -98 350 18 84 44 199 63 280 8 33 23 98 33 145 23 103 46 203
67 290 22 95 54 238 65 290 5 25 16 74 25 110 8 36 20 83 25 105 40 176 55
229 84 290 59 123 176 225 306 266 l69 22 0 78 c0 86 3 83 -65 68z"/>
<path d="M2965 3554 c60 -52 95 -77 95 -66 0 16 -101 102 -119 102 -11 -1 -3
-12 24 -36z"/>
<path d="M3025 3552 c24 -23 40 -31 43 -23 6 18 -25 48 -56 54 -25 5 -25 3 13
-31z"/>
<path d="M2080 3569 c0 -6 -9 -8 -22 -3 -23 7 -23 6 -4 -15 21 -23 15 -41 -8
-22 -10 8 -16 9 -21 1 -3 -5 -1 -10 4 -10 6 0 11 -5 11 -11 0 -6 -7 -9 -15 -5
-9 3 -15 0 -15 -8 0 -8 -4 -16 -8 -18 -5 -1 -30 -43 -57 -91 l-48 -89 37 -36
c34 -34 38 -36 50 -19 10 13 28 17 75 17 l61 0 0 -35 c0 -34 1 -35 38 -34 36
0 37 0 15 16 -13 8 -23 20 -23 25 0 5 16 -3 35 -18 49 -37 59 -20 13 21 -21
17 -38 35 -38 39 0 4 14 -4 32 -19 37 -32 52 -16 19 19 -24 26 -28 45 -6 26
19 -16 19 -11 0 150 -8 69 -15 126 -15 128 0 8 -110 0 -110 -9z m29 -186 c1
-31 -1 -33 -35 -33 -25 0 -35 4 -31 13 3 6 15 38 28 70 l24 57 7 -37 c4 -21 7
-53 7 -70z"/>
<path d="M2352 3533 c-6 -27 -18 -88 -28 -136 l-17 -88 64 -59 c59 -54 68 -59
112 -60 33 0 47 4 47 14 0 7 3 28 6 45 l7 31 -67 0 c-64 0 -66 1 -61 23 3 12
14 63 25 112 l19 90 -40 38 c-22 20 -44 37 -49 37 -4 0 -13 -21 -18 -47z"/>
<path d="M2424 3555 c17 -13 34 -21 39 -18 14 8 -24 43 -47 43 -19 -1 -18 -3
8 -25z"/>
<path d="M2660 3560 c0 -11 9 -25 20 -32 11 -7 20 -17 20 -22 0 -4 -11 -1 -25
8 -30 20 -34 4 -8 -28 10 -12 11 -15 3 -8 -8 6 -18 12 -22 12 -13 0 -9 -28 5
-33 8 -4 7 -6 -3 -6 -12 -1 -22 -29 -39 -113 -12 -62 -25 -121 -27 -130 -5
-16 2 -18 49 -18 43 0 56 4 61 17 4 11 1 22 -8 29 -9 6 -16 17 -16 24 0 10 3
10 14 1 10 -8 16 -9 21 -1 3 5 -1 13 -9 16 -9 3 -16 13 -16 21 0 12 3 13 13 5
10 -9 16 -2 25 31 13 45 52 226 52 239 0 4 -25 8 -55 8 -48 0 -55 -2 -55 -20z"/>
<path d="M2868 3564 c-35 -19 -58 -63 -58 -111 0 -48 20 -78 71 -104 45 -22
57 -43 41 -69 -9 -14 -4 -23 23 -50 28 -27 36 -30 53 -21 35 18 52 53 52 102
0 52 -19 78 -83 118 -34 21 -38 27 -33 52 4 22 1 32 -14 41 -11 7 -20 19 -20
26 0 7 16 0 39 -19 22 -17 44 -30 50 -28 10 4 -75 79 -88 79 -3 -1 -18 -7 -33
-16z"/>
<path d="M1330 3513 c-14 -9 -27 -18 -30 -21 -3 -2 -7 -52 -10 -110 l-5 -107
-97 0 c-88 -1 -99 -3 -122 -24 -33 -31 -41 -72 -22 -110 9 -16 22 -33 28 -38
7 -4 58 -10 113 -13 l100 -5 3 -102 c3 -96 4 -103 29 -123 34 -26 92 -26 127
1 25 20 26 24 26 124 l0 103 106 4 c97 3 107 5 125 27 27 34 34 68 18 98 -24
45 -52 56 -138 54 -114 -2 -111 -5 -111 106 0 91 -1 96 -29 124 -34 33 -73 38
-111 12z"/>
<path d="M3272 3450 c-63 -39 -68 -124 -10 -172 39 -33 80 -36 125 -8 71 43
64 154 -12 186 -46 19 -64 18 -103 -6z"/>
<path d="M3623 3459 c-44 -13 -63 -44 -63 -102 0 -42 5 -53 31 -78 44 -41 96
-40 144 2 29 26 35 38 35 71 0 53 -23 94 -61 107 -37 13 -42 13 -86 0z"/>
<path d="M2300 3276 c0 -16 82 -86 101 -86 7 0 -9 23 -36 50 -51 52 -65 60
-65 36z"/>
<path d="M2780 3282 c0 -12 106 -102 120 -102 18 0 9 11 -46 63 -48 44 -74 58
-74 39z"/>
<path d="M1880 3272 c0 -14 76 -83 83 -75 4 4 -9 24 -30 45 -36 37 -53 47 -53
30z"/>
<path d="M2891 3230 c24 -21 51 -39 59 -40 8 0 -5 18 -30 40 -25 21 -51 39
-59 40 -7 0 6 -18 30 -40z"/>
<path d="M2290 3237 c0 -19 33 -47 55 -47 16 0 15 4 -10 30 -31 33 -45 38 -45
17z"/>
<path d="M2775 3241 c-6 -11 51 -54 65 -49 6 2 -5 15 -24 30 -19 16 -37 24
-41 19z"/>
<path d="M1860 3232 c0 -15 36 -42 56 -42 16 1 15 4 -9 25 -29 25 -47 32 -47
17z"/>
<path d="M1845 3200 c-3 -5 1 -10 10 -10 9 0 13 5 10 10 -3 6 -8 10 -10 10 -2
0 -7 -4 -10 -10z"/>
<path d="M2280 3200 c0 -5 5 -10 11 -10 5 0 7 5 4 10 -3 6 -8 10 -11 10 -2 0
-4 -4 -4 -10z"/>
<path d="M3597 3107 c-33 -28 -47 -71 -35 -114 20 -75 122 -100 179 -44 24 24
29 38 29 76 0 38 -5 52 -29 76 -38 37 -102 40 -144 6z"/>
</g>
</svg>
