<svg id="Layer_2" data-name="Layer 2" xmlns="http://www.w3.org/2000/svg" viewBox="0 0 160.002 37.989"><defs><style>.cls-1{fill:#47eae7;}.cls-2{fill:#fff;}</style></defs><title>logo</title><path class="cls-1" d="M8.88,4.522A17.338,17.338,0,1,0,38.056,20.569,19.063,19.063,0,1,1,16.771,0,17.247,17.247,0,0,0,8.88,4.522Z" transform="translate(0)"/><path class="cls-1" d="M24.24,1.752a14.648,14.648,0,1,0,7.844,27.019,16.106,16.106,0,1,1-.431-25A14.578,14.578,0,0,0,24.24,1.752Z" transform="translate(0)"/><path class="cls-1" d="M34.653,9.361A12.038,12.038,0,1,0,23.512,29.626,13.242,13.242,0,1,1,37.793,14.843,11.992,11.992,0,0,0,34.653,9.361Z" transform="translate(0)"/><path class="cls-2" d="M71.031,35.725l-6.488-9.3a11.773,11.773,0,0,1-1.225.046H56.15v9.258h-5.9V3.957H63.318a17.578,17.578,0,0,1,7.191,1.362,10.463,10.463,0,0,1,4.7,3.9,10.926,10.926,0,0,1,1.633,6.036A10.765,10.765,0,0,1,75.1,21.427a10.391,10.391,0,0,1-5.013,3.857l7.3,10.438H71.031v0ZM68.9,10.583a9.062,9.062,0,0,0-5.853-1.634h-6.9V21.61h6.9A8.971,8.971,0,0,0,68.9,19.954a5.763,5.763,0,0,0,2-4.7A5.7,5.7,0,0,0,68.9,10.583Z" transform="translate(0)"/><path class="cls-2" d="M105.558,25.423H86.548a6.582,6.582,0,0,0,2.609,4.243A8.548,8.548,0,0,0,94.4,31.231a8.832,8.832,0,0,0,6.578-2.632l3.04,3.494a10.238,10.238,0,0,1-4.13,2.95,16.362,16.362,0,0,1-12.659-.59,11.444,11.444,0,0,1-4.7-4.425,12.5,12.5,0,0,1-1.656-6.422,12.683,12.683,0,0,1,1.611-6.376,11.437,11.437,0,0,1,4.469-4.425A13.035,13.035,0,0,1,93.4,11.218a12.71,12.71,0,0,1,6.33,1.566,11.091,11.091,0,0,1,4.354,4.4,13.339,13.339,0,0,1,1.566,6.557C105.648,24.137,105.617,24.7,105.558,25.423ZM88.793,17.367A6.784,6.784,0,0,0,86.5,21.656h13.748a6.626,6.626,0,0,0-6.852-5.9A6.84,6.84,0,0,0,88.793,17.367Z" transform="translate(0)"/><path class="cls-2" d="M133.324,11.49l-10.39,24.234h-5.853L106.692,11.49h5.9l7.531,17.972,7.759-17.972h5.442Z" transform="translate(0)"/><path class="cls-2" d="M140.446,34.454a11.58,11.58,0,0,1-4.6-4.425,12.5,12.5,0,0,1-1.656-6.422,12.378,12.378,0,0,1,1.656-6.4,11.634,11.634,0,0,1,4.6-4.4,14.7,14.7,0,0,1,13.293,0,11.634,11.634,0,0,1,4.6,4.4,12.378,12.378,0,0,1,1.656,6.4,12.5,12.5,0,0,1-1.656,6.422,11.58,11.58,0,0,1-4.6,4.425A14.7,14.7,0,0,1,140.446,34.454Zm11.8-5.355a7.517,7.517,0,0,0,2.041-5.491,7.518,7.518,0,0,0-2.041-5.491,6.93,6.93,0,0,0-5.172-2.088,6.858,6.858,0,0,0-5.15,2.088,7.564,7.564,0,0,0-2.019,5.491A7.563,7.563,0,0,0,141.92,29.1a6.856,6.856,0,0,0,5.15,2.088,6.929,6.929,0,0,0,5.173-2.088h0Z" transform="translate(0)"/></svg>