<svg id="Layer_4" data-name="Layer 4" xmlns="http://www.w3.org/2000/svg" viewBox="0 0 108 32"><defs><style>.cls-1{fill:#7dc22b;}.cls-2{fill:#fff;}</style></defs><title>logo</title><path class="cls-1" d="M32.236,3.429V28.571A3.441,3.441,0,0,1,28.782,32H3.454A3.441,3.441,0,0,1,0,28.571V3.429A3.441,3.441,0,0,1,3.454,0H28.782A3.441,3.441,0,0,1,32.236,3.429ZM21.874,18.857a4.031,4.031,0,0,0-2.719,1.048l-4.89-2.912a4,4,0,0,0,0-1.985l4.89-2.912a3.994,3.994,0,1,0-1.311-2.952,3.979,3.979,0,0,0,.125.993l-4.89,2.912a4,4,0,1,0,0,5.9l4.89,2.912A4.033,4.033,0,1,0,21.874,18.857Z"/><path class="cls-2" d="M57.248,26.151H45.842V6.135H57.248V8.9h-8.11v5.449h7.6v2.738h-7.6v6.284h8.11v2.779Z"/><path class="cls-2" d="M64.5,26.151H61.261V4.848H64.5v21.3Z"/><path class="cls-2" d="M81.99,26.151H78.735V16.814a4.207,4.207,0,0,0-.662-2.594A2.449,2.449,0,0,0,76,13.364a3.164,3.164,0,0,0-2.751,1.211,7.064,7.064,0,0,0-.876,4.033v7.543H69.136V11.009h2.538l0.455,1.985h0.166a4.21,4.21,0,0,1,1.841-1.67,5.972,5.972,0,0,1,2.655-.589q3.517,0,4.662,2.383h0.22a4.634,4.634,0,0,1,1.9-1.753,6.083,6.083,0,0,1,2.814-.63A5.146,5.146,0,0,1,90.368,12.1a6.034,6.034,0,0,1,1.248,4.176v9.871h-3.24V16.814a4.178,4.178,0,0,0-.669-2.594,2.47,2.47,0,0,0-2.076-.856,3.226,3.226,0,0,0-2.765,1.17,6,6,0,0,0-.876,3.594v8.023Z"/><path class="cls-2" d="M105.684,26.151l-0.648-2.109h-0.111a6.226,6.226,0,0,1-2.22,1.883,7.066,7.066,0,0,1-2.868.5,4.873,4.873,0,0,1-3.51-1.205,4.488,4.488,0,0,1-1.262-3.408,3.994,3.994,0,0,1,1.751-3.533,10.162,10.162,0,0,1,5.337-1.3l2.635-.082V16.088a3.047,3.047,0,0,0-.682-2.17,2.8,2.8,0,0,0-2.117-.719,7.387,7.387,0,0,0-2.248.342,17.131,17.131,0,0,0-2.069.808l-1.048-2.3a11.338,11.338,0,0,1,2.718-.979,12.575,12.575,0,0,1,2.785-.336,6.634,6.634,0,0,1,4.393,1.26A4.915,4.915,0,0,1,108,15.951v10.2h-2.316Zm-4.828-2.191a4.031,4.031,0,0,0,2.834-.979,3.534,3.534,0,0,0,1.07-2.745V18.922L102.8,19a6.75,6.75,0,0,0-3.331.76,2.3,2.3,0,0,0-1.041,2.074,2.016,2.016,0,0,0,.607,1.568A2.624,2.624,0,0,0,100.856,23.96Z"/></svg>