<?xml version="1.0" encoding="UTF-8" standalone="no"?><!DOCTYPE svg PUBLIC "-//W3C//DTD SVG 1.1//EN" "http://www.w3.org/Graphics/SVG/1.1/DTD/svg11.dtd"><svg width="40pt" height="40pt" viewBox="0 0 2134 2134" version="1.1" xmlns="http://www.w3.org/2000/svg" xmlns:xlink="http://www.w3.org/1999/xlink" xml:space="preserve" xmlns:serif="http://www.serif.com/" style="fill-rule:evenodd;clip-rule:evenodd;stroke-linejoin:round;stroke-miterlimit:2;"><rect id="Dear-ImGui" serif:id="Dear ImGui" x="-0" y="0" width="2133.33" height="2133.33" style="fill:none;"/><g><path d="M320.816,1044.06c-17.543,-0 -37.355,-1.513 -59.436,-4.537c-12.099,-1.513 -20.417,-4.689 -24.955,-9.528c-4.537,-4.84 -6.503,-12.704 -5.898,-23.594c2.118,-29.945 7.108,-66.923 14.973,-110.933c7.864,-44.01 17.392,-86.433 28.584,-127.267c2.117,-7.562 6.352,-12.855 12.704,-15.88c6.352,-3.025 14.67,-4.537 24.954,-4.537c18.451,-0 27.677,5.142 27.677,15.426c-0,4.235 -0.908,9.074 -2.722,14.519c-7.865,24.198 -15.729,56.639 -23.594,97.322c-7.864,40.683 -13.46,79.476 -16.787,116.378c9.074,0.907 19.358,1.361 30.853,1.361c52.933,-0 92.482,-16.031 118.646,-48.094c26.164,-32.062 39.246,-74.863 39.246,-128.401c0,-35.995 -10.284,-63.823 -30.852,-83.484c-20.569,-19.661 -49.606,-29.491 -87.114,-29.491c-24.198,-0 -48.169,3.781 -71.913,11.343c-23.745,7.562 -45.145,17.543 -64.201,29.945c-3.932,2.722 -8.167,4.083 -12.704,4.083c-5.142,0 -9.226,-2.193 -12.25,-6.579c-3.025,-4.386 -4.538,-9.755 -4.538,-16.107c0,-7.259 1.21,-13.233 3.63,-17.921c2.42,-4.689 6.503,-8.999 12.25,-12.931c20.871,-14.217 45.372,-25.03 73.502,-32.441c28.131,-7.41 55.202,-11.116 81.215,-11.116c36.902,0 68.814,6.428 95.734,19.283c26.921,12.855 47.64,31.685 62.159,56.488c14.519,24.803 21.778,54.748 21.778,89.835c0,45.674 -9.074,85.525 -27.222,119.554c-18.149,34.029 -44.616,60.42 -79.401,79.173c-34.784,18.754 -76.224,28.131 -124.318,28.131Z" style="fill-rule:nonzero;"/><path d="M784.513,940.616c3.932,-0 7.033,1.815 9.301,5.444c2.269,3.63 3.403,8.621 3.403,14.973c0,12.099 -2.873,21.476 -8.62,28.13c-11.192,13.612 -26.996,26.164 -47.413,37.659c-20.418,11.494 -42.272,17.241 -65.562,17.241c-31.76,-0 -56.412,-8.621 -73.956,-25.862c-17.544,-17.241 -26.315,-40.834 -26.315,-70.78c-0,-20.87 4.386,-40.305 13.157,-58.302c8.772,-17.997 20.947,-32.289 36.524,-42.876c15.578,-10.587 33.197,-15.88 52.858,-15.88c17.544,-0 31.609,5.218 42.196,15.653c10.586,10.436 15.88,24.576 15.88,42.422c-0,20.871 -7.487,38.793 -22.459,53.766c-14.973,14.972 -40.305,26.845 -75.997,35.616c7.562,13.914 21.929,20.871 43.103,20.871c13.611,0 29.113,-4.764 46.505,-14.292c17.393,-9.528 32.441,-22.005 45.145,-37.431c3.63,-4.235 7.713,-6.352 12.25,-6.352Zm-114.336,-65.789c-11.192,0 -20.644,6.503 -28.357,19.51c-7.713,13.006 -11.57,28.735 -11.57,47.186l0,0.908c17.846,-4.235 31.911,-10.587 42.196,-19.056c10.284,-8.47 15.426,-18.3 15.426,-29.492c-0,-5.747 -1.588,-10.36 -4.764,-13.838c-3.176,-3.479 -7.486,-5.218 -12.931,-5.218Z" style="fill-rule:nonzero;"/><path d="M814.005,1044.06c-18.754,-0 -33.726,-6.806 -44.918,-20.417c-11.192,-13.612 -16.787,-31.458 -16.787,-53.539c-0,-24.198 5.595,-47.111 16.787,-68.738c11.192,-21.627 26.089,-39.019 44.691,-52.177c18.602,-13.158 38.339,-19.736 59.21,-19.736c6.654,-0 11.116,1.285 13.384,3.856c2.269,2.571 4.159,7.184 5.672,13.838c6.352,-1.21 13.006,-1.814 19.963,-1.814c14.822,-0 22.232,5.293 22.232,15.88c0,6.352 -2.268,21.475 -6.805,45.371c-6.957,34.785 -10.436,58.983 -10.436,72.594c0,4.538 1.134,8.167 3.403,10.89c2.269,2.722 5.218,4.083 8.847,4.083c5.747,0 12.704,-3.705 20.871,-11.116c8.167,-7.411 19.208,-19.434 33.121,-36.07c3.63,-4.235 7.714,-6.352 12.251,-6.352c3.932,-0 7.032,1.815 9.301,5.444c2.269,3.63 3.403,8.621 3.403,14.973c-0,12.099 -2.874,21.476 -8.621,28.13c-12.401,15.427 -25.559,28.433 -39.473,39.02c-13.914,10.586 -27.374,15.88 -40.381,15.88c-9.981,-0 -19.131,-3.403 -27.449,-10.209c-8.318,-6.806 -14.595,-16.107 -18.83,-27.903c-15.728,25.408 -35.541,38.112 -59.436,38.112Zm16.334,-45.825c6.654,-0 13.006,-3.933 19.056,-11.797c6.049,-7.864 10.435,-18.3 13.157,-31.306l16.788,-83.484c-12.704,0.302 -24.425,5.066 -35.163,14.292c-10.738,9.226 -19.283,21.4 -25.635,36.524c-6.352,15.124 -9.528,31.155 -9.528,48.094c-0,9.377 1.89,16.334 5.671,20.871c3.781,4.537 8.999,6.806 15.654,6.806Z" style="fill-rule:nonzero;"/><path d="M1154.75,892.522c6.654,-0 12.326,2.344 17.014,7.032c4.688,4.689 7.033,10.512 7.033,17.469c-0,3.932 -0.908,8.166 -2.723,12.704c-4.839,11.191 -11.645,20.568 -20.417,28.13c-8.772,7.562 -18.451,11.343 -29.038,11.343c-8.469,-0 -15.653,-3.025 -21.551,-9.075c-5.898,-6.049 -8.847,-14.216 -8.847,-24.5c-0,-5.747 0.302,-11.948 0.907,-18.602c0.605,-4.84 0.907,-8.167 0.907,-9.982c0,-2.42 -0.529,-4.235 -1.588,-5.445c-1.058,-1.21 -2.344,-1.815 -3.856,-1.815c-4.235,0 -9.982,5.067 -17.241,15.2c-7.26,10.133 -14.519,23.517 -21.779,40.154c-7.259,16.636 -13.157,34.179 -17.695,52.631c-3.327,14.518 -7.108,24.198 -11.342,29.037c-4.235,4.84 -11.192,7.26 -20.871,7.26c-11.494,-0 -19.586,-6.05 -24.274,-18.149c-4.688,-12.099 -7.033,-31.457 -7.033,-58.075c0,-39.322 5.596,-76.678 16.788,-112.068c2.722,-8.772 7.184,-15.199 13.384,-19.283c6.201,-4.083 14.897,-6.125 26.089,-6.125c6.05,-0 10.284,0.756 12.704,2.269c2.42,1.512 3.63,4.385 3.63,8.62c-0,4.84 -2.269,15.729 -6.806,32.668c-3.025,12.099 -5.445,22.685 -7.259,31.76c-1.815,9.074 -3.328,20.266 -4.538,33.575c9.982,-26.013 21.174,-47.187 33.575,-63.521c12.402,-16.333 24.501,-27.979 36.298,-34.936c11.796,-6.957 22.534,-10.435 32.213,-10.435c8.772,-0 15.502,2.495 20.191,7.486c4.688,4.991 7.032,12.326 7.032,22.005c0,5.747 -1.663,16.637 -4.991,32.668l4.084,-0Z" style="fill-rule:nonzero;"/></g><g><path d="M663.541,1088.93c7.864,-0 14.519,1.89 19.963,5.671c5.445,3.781 8.167,8.394 8.167,13.838c0,9.68 -3.025,17.469 -9.074,23.367c-6.05,5.898 -14.67,8.847 -25.862,8.847c-17.544,0 -30.853,0.151 -39.927,0.454c-0.605,3.63 -3.327,19.963 -8.167,49.001c-5.444,32.365 -8.772,52.177 -9.981,59.437l-9.528,59.437c-6.655,44.464 -11.948,81.668 -15.88,111.613c6.352,-0.302 14.972,-0.453 25.861,-0.453c16.032,-0 26.921,2.117 32.668,6.352c5.747,4.234 8.62,10.586 8.62,19.056c0,7.864 -3.1,14.519 -9.301,19.963c-6.201,5.445 -14.897,8.167 -26.088,8.167c-7.562,0 -19.51,-0.302 -35.844,-0.907c-15.124,-0.605 -25.105,-0.908 -29.945,-0.908c-19.056,0 -39.927,1.664 -62.613,4.991c-9.982,1.513 -17.09,2.269 -21.324,2.269c-6.655,-0 -12.251,-1.815 -16.788,-5.445c-4.537,-3.63 -6.806,-8.923 -6.806,-15.88c0,-10.889 4.84,-19.358 14.519,-25.408c9.68,-6.049 23.291,-9.225 40.835,-9.528l21.324,-0.454l1.361,-9.981c7.26,-48.397 12.553,-82.577 15.88,-102.54l9.982,-59.437c6.05,-35.087 11.494,-71.233 16.334,-108.438l-38.112,0.454c-10.889,0 -18.376,-1.739 -22.459,-5.218c-4.083,-3.478 -6.125,-8.393 -6.125,-14.745c-0,-20.569 14.821,-31.609 44.464,-33.122c13.914,-0.604 30.853,-0.907 50.816,-0.907l83.03,0.454Z" style="fill-rule:nonzero;"/><path d="M717.987,1473.23c-11.494,0 -19.586,-6.049 -24.274,-18.148c-4.689,-12.099 -7.033,-31.458 -7.033,-58.076c0,-39.322 5.596,-76.678 16.788,-112.067c2.722,-8.772 7.184,-15.2 13.384,-19.283c6.201,-4.084 14.897,-6.125 26.089,-6.125c6.05,-0 10.284,0.756 12.704,2.268c2.42,1.513 3.63,4.386 3.63,8.621c-0,4.839 -2.269,15.729 -6.806,32.667c-3.025,12.099 -5.445,22.61 -7.259,31.533c-1.815,8.924 -3.328,20.04 -4.538,33.349c8.167,-23.594 17.922,-43.557 29.265,-59.891c11.343,-16.334 22.988,-28.508 34.936,-36.524c11.948,-8.016 23.215,-12.023 33.802,-12.023c10.587,-0 18.073,2.419 22.459,7.259c4.386,4.84 6.579,12.25 6.579,22.232c-0,9.679 -2.874,27.223 -8.621,52.631c-2.42,10.889 -4.083,19.056 -4.991,24.501c15.124,-37.205 31.911,-64.277 50.363,-81.215c18.451,-16.939 35.692,-25.408 51.723,-25.408c19.661,-0 29.492,9.83 29.492,29.491c-0,11.797 -3.328,33.121 -9.982,63.974c-5.747,26.315 -8.621,43.708 -8.621,52.177c0,12.099 4.386,18.149 13.158,18.149c6.049,-0 13.233,-3.706 21.551,-11.116c8.319,-7.411 19.435,-19.434 33.348,-36.071c3.63,-4.234 7.714,-6.352 12.251,-6.352c3.932,0 7.032,1.815 9.301,5.445c2.269,3.63 3.403,8.621 3.403,14.973c-0,12.099 -2.874,21.475 -8.621,28.13c-13.006,16.031 -26.996,29.189 -41.968,39.473c-14.973,10.284 -31.987,15.426 -51.043,15.426c-15.427,0 -27.072,-4.461 -34.936,-13.384c-7.865,-8.923 -11.797,-21.854 -11.797,-38.793c-0,-8.469 2.117,-23.593 6.352,-45.371c3.932,-19.056 5.898,-32.214 5.898,-39.474c0,-4.839 -1.663,-7.259 -4.991,-7.259c-3.932,0 -9.528,5.066 -16.787,15.199c-7.259,10.133 -14.519,23.518 -21.778,40.154c-7.26,16.636 -13.158,34.18 -17.695,52.631c-3.327,14.519 -7.184,24.198 -11.57,29.038c-4.386,4.84 -11.418,7.259 -21.098,7.259c-9.981,0 -17.468,-4.764 -22.459,-14.292c-4.991,-9.528 -7.486,-21.097 -7.486,-34.709c0,-11.494 1.512,-28.13 4.537,-49.908c2.42,-19.359 3.63,-32.063 3.63,-38.113c-0,-4.839 -1.664,-7.259 -4.991,-7.259c-4.537,0 -10.284,5.445 -17.241,16.334c-6.957,10.889 -13.687,24.803 -20.19,41.742c-6.504,16.938 -11.721,33.574 -15.654,49.908c-3.327,14.217 -7.183,23.82 -11.569,28.811c-4.386,4.991 -11.268,7.486 -20.644,7.486Z" style="fill-rule:nonzero;"/><path d="M1406.27,1370.69c3.933,-0 7.033,1.89 9.302,5.671c2.268,3.781 3.402,8.545 3.402,14.292c0,6.957 -1.058,12.402 -3.176,16.334c-2.117,3.932 -5.444,7.411 -9.981,10.435c-17.846,11.797 -46.279,31.156 -85.299,58.076c-11.796,62.613 -27.071,111.916 -45.825,147.911c-18.754,35.995 -42.498,53.992 -71.233,53.992c-15.427,0 -27.979,-4.764 -37.659,-14.292c-9.679,-9.528 -14.518,-22.005 -14.518,-37.431c-0,-14.217 3.176,-28.584 9.528,-43.103c6.352,-14.519 18.224,-31.307 35.616,-50.363c17.393,-19.056 41.969,-40.834 73.729,-65.335l1.361,-8.62c-23.896,9.982 -47.338,14.972 -70.326,14.972c-33.877,0 -63.671,-6.578 -89.382,-19.736c-25.71,-13.158 -45.674,-31.836 -59.89,-56.034c-14.216,-24.198 -21.325,-52.328 -21.325,-84.391c0,-44.767 8.47,-84.315 25.408,-118.647c16.939,-34.331 40.305,-60.949 70.099,-79.853c29.794,-18.905 63.142,-28.358 100.045,-28.358c35.389,0 61.932,8.243 79.627,24.728c17.694,16.485 26.542,38.339 26.542,65.562c-0,17.846 -3.252,32.138 -9.755,42.876c-6.503,10.738 -15.804,16.107 -27.904,16.107c-8.166,-0 -14.745,-1.966 -19.736,-5.899c-4.991,-3.932 -7.486,-9.376 -7.486,-16.333c-0,-3.025 0.605,-8.167 1.814,-15.427c1.815,-8.469 2.723,-15.123 2.723,-19.963c-0,-12.704 -3.857,-22.535 -11.57,-29.492c-7.713,-6.957 -20.644,-10.435 -38.793,-10.435c-22.08,-0 -42.573,6.352 -61.478,19.056c-18.905,12.704 -34.104,31.684 -45.598,56.941c-11.495,25.257 -17.242,55.58 -17.242,90.97c0,36.297 9.907,64.352 29.719,84.164c19.812,19.812 48.472,29.719 85.979,29.719c20.871,-0 42.649,-4.689 65.335,-14.066l6.352,-55.353l-46.279,0c-8.47,0 -14.973,-2.042 -19.51,-6.125c-4.537,-4.083 -6.806,-10.814 -6.806,-20.19c0,-8.47 2.269,-15.124 6.806,-19.964c4.537,-4.839 10.587,-7.259 18.149,-7.259l84.844,-0c6.655,-0 12.175,2.193 16.561,6.579c4.386,4.386 6.125,10.662 5.218,18.829c-0.908,9.679 -3.932,31.609 -9.075,65.789l-4.99,34.482c24.198,-18.149 46.278,-33.878 66.242,-47.186c3.932,-2.42 7.411,-3.63 10.435,-3.63Zm-197.819,262.701c7.864,-0 16.485,-8.923 25.861,-26.769c9.377,-17.847 18.149,-46.582 26.316,-86.206c-22.988,19.661 -39.549,37.431 -49.682,53.311c-10.133,15.88 -15.199,29.87 -15.199,41.969c-0,11.797 4.234,17.695 12.704,17.695Z" style="fill-rule:nonzero;"/><path d="M1432.59,1473.23c-13.612,0 -24.728,-6.276 -33.348,-18.829c-8.621,-12.553 -12.931,-28.206 -12.931,-46.959c-0,-22.686 1.512,-43.481 4.537,-62.386c3.025,-18.905 8.016,-38.944 14.973,-60.117c3.024,-9.075 7.259,-15.578 12.704,-19.51c5.444,-3.932 14.065,-5.898 25.861,-5.898c6.655,-0 11.268,1.058 13.839,3.176c2.571,2.117 3.856,5.293 3.856,9.528c0,2.419 -1.663,10.586 -4.991,24.5c-3.024,11.192 -5.444,21.325 -7.259,30.399c-6.049,31.76 -9.074,52.934 -9.074,63.52c-0,6.352 0.756,10.814 2.268,13.385c1.513,2.571 3.933,3.856 7.26,3.856c4.537,0 10.208,-4.537 17.014,-13.611c6.806,-9.074 14.065,-22.837 21.778,-41.288c7.714,-18.451 15.2,-41.137 22.459,-68.057c2.42,-9.075 6.125,-15.578 11.116,-19.51c4.991,-3.932 12.477,-5.898 22.459,-5.898c6.957,-0 11.797,0.831 14.519,2.495c2.722,1.664 4.084,4.764 4.084,9.301c-0,7.562 -3.781,28.282 -11.343,62.159c-8.47,38.717 -12.704,62.613 -12.704,71.687c-0,5.747 1.21,10.209 3.629,13.385c2.42,3.176 5.596,4.764 9.528,4.764c6.05,-0 13.234,-3.706 21.552,-11.116c8.318,-7.411 19.434,-19.434 33.348,-36.071c3.63,-4.234 7.713,-6.352 12.25,-6.352c3.932,0 7.033,1.815 9.301,5.445c2.269,3.63 3.403,8.621 3.403,14.973c0,12.099 -2.873,21.475 -8.62,28.13c-13.007,16.031 -26.996,29.189 -41.969,39.473c-14.973,10.284 -31.987,15.426 -51.043,15.426c-14.519,0 -25.181,-5.595 -31.987,-16.787c-6.806,-11.192 -10.208,-26.92 -10.208,-47.186c-5.143,20.568 -12.856,36.372 -23.14,47.413c-10.284,11.04 -21.325,16.56 -33.121,16.56Z" style="fill-rule:nonzero;"/><path d="M1658.54,1229.58c-12.704,0 -22.232,-2.949 -28.584,-8.847c-6.352,-5.898 -9.528,-14.141 -9.528,-24.727c-0,-10.587 4.159,-19.435 12.477,-26.543c8.318,-7.108 18.678,-10.662 31.08,-10.662c11.191,-0 20.265,2.722 27.222,8.167c6.957,5.444 10.436,13.157 10.436,23.139c-0,12.099 -3.932,21.703 -11.797,28.811c-7.864,7.108 -18.3,10.662 -31.306,10.662Zm-43.557,243.645c-9.679,0 -16.333,-1.966 -19.963,-5.898c-3.63,-3.932 -5.445,-10.133 -5.445,-18.602c0,-2.42 0.303,-6.655 0.908,-12.704c4.839,-55.353 12.855,-105.716 24.047,-151.087c2.419,-9.377 6.427,-15.956 12.023,-19.737c5.596,-3.781 14.595,-5.671 26.996,-5.671c13.007,-0 19.51,5.293 19.51,15.88c-0,1.512 -0.303,4.386 -0.908,8.62c-13.611,64.73 -21.778,119.025 -24.5,162.884c-0.605,9.679 -3.479,16.485 -8.621,20.417c-5.142,3.932 -13.158,5.898 -24.047,5.898Z" style="fill-rule:nonzero;"/></g><path d="M1507.61,395.58c-54.523,-17.652 -88.61,-17.224 -115.756,-17.324c-14.826,-0.055 -14.755,-0.145 -17.444,12.869c-7.285,35.246 -23.414,78.538 -49.306,132.537c-5.807,12.001 -54.619,111.744 -62.754,130.92c-2.801,6.655 -5.199,12.126 -5.271,12.217c-0.111,0.03 -1.88,-0.864 -3.911,-2.023c-21.849,-12.066 -42.513,-21.15 -71.072,-25.302c-118.951,-17.294 -154.653,21.432 -153.149,68.304c1.673,52.105 62.749,88.056 65.299,89.005c2.832,1.113 4,0.827 11.111,-2.667c9.696,-4.755 17.282,-7.992 25.647,-10.91c40.953,-14.453 85.136,-9.094 164.847,68.498c55.301,53.831 250.426,234.506 316.53,151.12c39.35,-49.637 11.636,-87.466 -12.199,-106.016c-15.227,-11.913 -32.148,-20.743 -54.43,-28.411c-2.509,-0.888 -2.6,-0.959 -2.035,-2.163c2.376,-5.106 8.705,-17.844 13.171,-26.425c38.415,-74.223 86.643,-138.18 152.916,-202.843c4.817,-4.655 9.187,-9.19 9.719,-9.978c1.618,-2.464 0.329,-4.748 -1.974,-13.186c-32.272,-118.243 -114.321,-187.266 -209.939,-218.222Z" style="fill-rule:nonzero;"/></svg>