<?xml version="1.0" standalone="no"?>
<!DOCTYPE svg PUBLIC "-//W3C//DTD SVG 20010904//EN"
 "http://www.w3.org/TR/2001/REC-SVG-20010904/DTD/svg10.dtd">
<svg version="1.0" xmlns="http://www.w3.org/2000/svg"
 width="252.000000pt" height="126.000000pt" viewBox="0 0 252.000000 126.000000"
 preserveAspectRatio="xMidYMid meet">
<g transform="translate(0.000000,126.000000) scale(0.050000,-0.050000)"
fill="#000000" stroke="none">
<path d="M727 1899 c-585 -112 -586 -1114 -1 -1205 123 -19 294 19 390 86 104
73 96 73 111 0 10 -51 21 -60 73 -60 l61 0 -5 310 -6 311 -260 4 c-143 2 -258
-3 -255 -11 3 -8 5 -41 5 -74 l0 -60 182 0 181 0 -14 -65 c-73 -339 -521 -413
-666 -110 -130 270 -37 621 188 706 170 65 402 -21 438 -163 10 -42 24 -48
102 -48 88 0 89 1 77 55 -57 238 -318 378 -601 324z"/>
<path d="M1580 1300 l0 -580 381 0 381 0 -6 75 -6 75 -290 1 -290 0 7 505 7
504 -92 0 -92 0 0 -580z"/>
<path d="M2480 1300 l0 -580 90 0 90 0 0 260 0 260 280 0 280 0 0 80 0 80
-280 0 -280 0 0 160 0 160 320 0 320 0 0 80 0 80 -410 0 -410 0 0 -580z"/>
<path d="M3359 1865 c0 -8 65 -269 145 -580 l146 -565 91 0 90 0 116 425 c63
234 122 442 130 462 9 25 53 -104 130 -390 64 -235 120 -443 126 -462 13 -48
207 -52 207 -4 0 17 63 269 140 560 77 292 140 539 140 549 0 38 -176 23 -188
-15 -6 -19 -52 -219 -103 -445 -50 -225 -94 -412 -97 -415 -3 -2 -59 196 -126
440 l-121 445 -97 6 -98 6 -32 -126 c-102 -395 -207 -774 -214 -767 -4 4 -37
141 -74 304 -37 163 -82 362 -101 442 l-33 145 -88 0 c-48 0 -88 -7 -89 -15z"/>
</g>
</svg>
