<?xml version="1.0" standalone="no"?>
<!DOCTYPE svg PUBLIC "-//W3C//DTD SVG 20010904//EN"
 "http://www.w3.org/TR/2001/REC-SVG-20010904/DTD/svg10.dtd">
<svg version="1.0" xmlns="http://www.w3.org/2000/svg"
 width="40pt" height="40pt" viewBox="0 0 600.000000 279.000000"
 preserveAspectRatio="xMidYMid meet">
<g transform="translate(0.000000,279.000000) scale(0.100000,-0.100000)"
fill="#000000" stroke="none">
<path d="M1497 2783 c827 -2 2179 -2 3005 0 827 1 151 2 -1502 2 -1653 0
-2329 -1 -1503 -2z"/>
<path d="M849 2486 c-3 -3 -50 -12 -105 -20 -55 -7 -114 -21 -132 -30 -17 -9
-39 -16 -49 -16 -10 0 -34 -8 -53 -19 -19 -10 -45 -21 -58 -25 -39 -13 -175
-108 -227 -161 -144 -143 -196 -299 -180 -534 7 -112 20 -161 66 -256 29 -60
127 -175 148 -175 6 0 11 -4 11 -10 0 -5 17 -19 37 -30 21 -11 58 -32 83 -46
25 -14 63 -32 85 -40 22 -8 49 -18 60 -24 33 -16 152 -47 330 -86 281 -62 379
-115 411 -221 29 -97 -13 -192 -111 -255 -63 -40 -235 -72 -339 -65 -94 8
-245 38 -331 67 -122 42 -314 147 -396 217 -16 14 -79 18 -79 6 0 -5 -2 -119
-5 -255 -4 -222 -3 -249 13 -267 16 -19 74 -43 182 -76 25 -8 65 -21 90 -29
176 -56 292 -68 610 -63 241 4 260 5 345 31 173 51 275 103 384 193 111 93
171 185 217 335 25 82 26 97 21 230 -4 120 -9 154 -30 212 -14 37 -30 73 -36
79 -6 6 -11 16 -11 22 0 31 -144 170 -215 208 -72 38 -143 70 -185 83 -42 12
-95 29 -180 56 -19 6 -73 20 -120 29 -327 69 -412 106 -462 202 -55 107 4 227
147 299 51 25 77 31 170 38 124 8 293 -4 339 -24 17 -8 44 -17 61 -21 16 -3
52 -17 80 -29 27 -13 57 -26 65 -30 8 -4 33 -18 55 -31 22 -13 54 -32 70 -41
17 -9 49 -32 73 -51 52 -42 88 -42 86 0 -1 15 -2 127 -2 250 l-2 222 -32 17
c-18 9 -51 22 -73 29 -22 6 -44 15 -50 19 -5 5 -39 14 -75 20 -35 6 -72 16
-81 21 -33 17 -258 41 -434 46 -99 3 -183 2 -186 -1z"/>
<path d="M2016 2421 c-8 -12 -14 -416 -22 -1435 -5 -713 -4 -850 7 -857 18
-11 964 -11 1054 1 105 13 264 46 315 64 39 15 111 49 198 95 85 45 254 211
318 312 107 171 155 300 180 484 24 183 6 458 -37 568 -10 26 -19 56 -19 65 0
30 -94 203 -152 282 -88 119 -244 253 -341 294 -19 7 -38 19 -41 25 -4 6 -15
11 -24 11 -9 0 -30 7 -47 16 -58 31 -219 65 -350 74 -168 12 -1032 13 -1039 1z
m982 -415 c63 -14 129 -42 215 -92 21 -13 103 -90 127 -120 25 -31 70 -103 70
-111 0 -4 9 -25 19 -47 34 -72 61 -227 61 -346 0 -124 -33 -303 -71 -380 -81
-168 -184 -262 -359 -331 -48 -19 -79 -22 -255 -26 -124 -2 -206 0 -215 6 -13
9 -15 103 -18 722 -2 670 -1 713 15 732 17 18 28 19 178 14 91 -3 192 -12 233
-21z"/>
<path d="M4256 2422 c-2 -4 -6 -523 -8 -1152 l-3 -1145 775 0 775 0 3 203 2
202 -26 11 c-17 6 -190 9 -468 9 -243 -1 -449 2 -458 5 -10 4 -18 15 -18 24
-7 289 -10 488 -15 1096 -5 477 -10 734 -17 743 -8 9 -75 12 -274 12 -144 0
-265 -4 -268 -8z"/>
</g>
</svg>
