<?xml version="1.0" standalone="no"?>
<!DOCTYPE svg PUBLIC "-//W3C//DTD SVG 20010904//EN"
 "http://www.w3.org/TR/2001/REC-SVG-20010904/DTD/svg10.dtd">
<svg version="1.0" xmlns="http://www.w3.org/2000/svg"
 width="512.000000pt" height="512.000000pt" viewBox="0 0 512.000000 512.000000"
 preserveAspectRatio="xMidYMid meet">

<g transform="translate(0.000000,512.000000) scale(0.100000,-0.100000)"
fill="#000000" stroke="none">
<path d="M743 5105 c-350 -64 -623 -318 -715 -665 l-23 -85 0 -1795 0 -1795
23 -85 c86 -323 329 -566 652 -652 l85 -23 1795 0 1795 0 85 23 c323 86 566
329 652 652 l23 85 0 1795 0 1795 -23 85 c-85 321 -323 561 -647 652 l-80 23
-1775 2 c-1425 1 -1789 -1 -1847 -12z m3628 -121 c63 -16 140 -44 194 -72 75
-38 107 -63 196 -151 88 -89 113 -121 151 -196 28 -54 56 -131 72 -194 l26
-104 0 -1707 0 -1707 -26 -104 c-16 -63 -44 -140 -72 -194 -38 -75 -63 -107
-151 -196 -89 -88 -121 -113 -196 -151 -54 -28 -131 -56 -194 -72 l-104 -26
-432 0 -433 0 -18 27 c-18 26 -19 51 -18 353 1 324 1 325 28 407 20 63 50 118
130 236 56 85 115 185 131 223 31 75 48 100 62 91 5 -3 46 -60 91 -125 161
-236 314 -333 527 -334 146 -1 267 46 363 141 123 121 173 229 180 391 2 58 0
128 -6 155 -9 47 -70 320 -91 410 -26 109 -65 284 -116 515 -31 140 -63 284
-71 320 -9 36 -20 83 -24 105 -5 22 -25 111 -45 198 -19 87 -49 192 -66 234
-42 99 -120 213 -188 275 -98 87 -249 165 -358 183 l-43 7 0 -86 0 -85 48 -15
c110 -32 240 -120 302 -205 82 -109 103 -166 155 -406 14 -66 30 -136 35 -155
6 -19 22 -89 36 -155 14 -66 43 -199 64 -295 22 -96 47 -206 56 -245 48 -216
93 -413 104 -460 54 -221 59 -273 34 -356 -27 -89 -59 -142 -123 -201 -103
-96 -218 -126 -339 -89 -129 39 -193 103 -347 346 -153 241 -164 261 -179 326
-23 100 -46 153 -128 300 -142 255 -277 484 -297 507 l-19 22 -450 0 -449 0
-23 -24 c-21 -23 -22 -32 -18 -113 5 -103 24 -146 90 -210 75 -73 94 -77 343
-83 l220 -5 47 -140 c48 -144 57 -193 36 -199 -115 -29 -204 -82 -298 -176
-101 -101 -164 -227 -185 -370 -4 -25 -9 -53 -11 -63 -8 -26 -33 -20 -41 11
-12 44 -8 232 6 292 30 121 109 268 185 339 20 19 36 39 36 43 0 5 -258 7
-572 6 -568 -3 -573 -3 -629 -26 -30 -12 -74 -38 -97 -58 -43 -36 -132 -178
-274 -435 -109 -198 -190 -270 -335 -300 -161 -33 -350 81 -414 251 -43 113
-39 163 51 560 17 74 40 180 51 235 11 55 24 116 29 135 11 41 51 221 75 330
17 81 28 129 76 345 17 77 38 171 46 210 33 154 77 244 166 340 71 77 158 134
254 166 l63 21 0 85 0 85 -37 -7 c-160 -29 -338 -136 -438 -263 -52 -65 -115
-183 -138 -257 -9 -27 -32 -124 -52 -215 -20 -91 -42 -194 -50 -230 -8 -36
-44 -200 -80 -365 -36 -165 -76 -345 -89 -400 -13 -55 -29 -127 -36 -160 -7
-33 -21 -96 -31 -141 -65 -281 -70 -347 -39 -468 50 -195 190 -350 369 -407
83 -26 231 -29 309 -6 154 47 257 137 378 332 44 71 88 131 97 133 12 3 22 -8
33 -35 52 -127 104 -218 217 -374 71 -97 97 -241 97 -534 0 -172 -12 -308 -32
-377 l-11 -38 -432 0 -432 0 -104 26 c-63 16 -140 44 -194 72 -75 38 -107 63
-196 151 -88 89 -113 121 -151 196 -28 54 -56 131 -72 194 l-26 104 0 1707 0
1707 26 104 c16 63 44 140 72 194 38 75 63 107 151 195 126 126 216 178 381
222 l105 27 1711 1 1711 0 104 -26z"/>
<path d="M2712 4556 l-37 -34 0 -314 c0 -172 3 -325 8 -340 10 -38 65 -98 104
-114 41 -18 105 -18 146 0 41 17 88 66 104 108 18 51 17 618 -1 663 -22 52
-58 65 -181 65 l-105 0 -38 -34z"/>
<path d="M2124 4461 c-52 -32 -56 -52 -52 -338 l3 -260 27 -40 c80 -121 270
-106 327 27 19 45 21 67 21 289 0 264 -5 292 -60 325 -42 24 -224 23 -266 -3z"/>
<path d="M3328 4462 c-54 -33 -58 -57 -58 -326 0 -272 3 -288 67 -348 80 -76
218 -60 280 33 l28 42 3 263 c4 290 1 309 -58 339 -43 22 -225 21 -262 -3z"/>
<path d="M1528 4354 c-52 -28 -58 -54 -58 -269 0 -154 3 -204 15 -233 56 -133
253 -151 333 -29 27 40 27 43 30 243 4 224 -2 254 -57 287 -39 23 -222 24
-263 1z"/>
<path d="M1225 3185 c-23 -22 -25 -31 -25 -129 0 -136 -2 -138 -119 -135 -104
3 -137 -9 -156 -56 -22 -52 -18 -74 19 -111 l34 -34 101 0 c122 0 121 2 121
-140 0 -96 1 -102 26 -125 39 -36 101 -35 137 3 26 27 27 33 27 129 0 56 3
108 6 117 5 13 25 16 110 16 100 0 105 1 136 29 27 24 33 36 33 71 0 35 -6 47
-33 71 -31 27 -37 29 -123 29 -130 0 -129 -1 -129 125 0 97 -2 105 -26 134
-22 26 -33 31 -70 31 -34 0 -51 -6 -69 -25z"/>
<path d="M3524 3131 c-33 -15 -45 -28 -58 -63 -16 -42 -16 -47 0 -87 19 -48
55 -71 111 -71 45 0 77 20 98 60 32 62 4 139 -60 166 -43 17 -41 18 -91 -5z"/>
<path d="M3921 3140 c-18 -4 -45 -20 -60 -34 -22 -22 -26 -35 -26 -82 0 -50 3
-58 33 -85 26 -23 42 -29 78 -29 39 0 51 5 80 34 28 28 34 42 34 75 0 56 -22
95 -64 115 -19 9 -36 16 -38 15 -1 -1 -18 -5 -37 -9z"/>
<path d="M3869 2721 c-31 -31 -39 -46 -39 -75 0 -75 49 -126 121 -126 33 0 47
6 75 34 28 28 34 42 34 75 0 78 -49 131 -121 131 -23 0 -41 -10 -70 -39z"/>
</g>
</svg>
